<mxfile host="Electron" agent="Mozilla/5.0 (Windows NT 10.0; Win64; x64) AppleWebKit/537.36 (KHTML, like Gecko) draw.io/26.2.2 Chrome/134.0.6998.178 Electron/35.1.2 Safari/537.36" version="26.2.2">
  <diagram name="Page-1" id="YvG3G-DKzLpsywxGTCxs">
    <mxGraphModel dx="1182" dy="686" grid="1" gridSize="10" guides="1" tooltips="1" connect="1" arrows="1" fold="1" page="1" pageScale="1" pageWidth="1169" pageHeight="827" math="0" shadow="0">
      <root>
        <mxCell id="0" />
        <mxCell id="1" parent="0" />
        <mxCell id="O4546vlrkSZURTtSVhJm-1" value="namespace : ess" style="rounded=0;whiteSpace=wrap;html=1;verticalAlign=top;" vertex="1" parent="1">
          <mxGeometry x="120" y="230" width="385" height="374.21" as="geometry" />
        </mxCell>
        <mxCell id="O4546vlrkSZURTtSVhJm-28" value="Event Streams:ess-es1" style="rounded=0;whiteSpace=wrap;html=1;verticalAlign=top;" vertex="1" parent="1">
          <mxGeometry x="150.27675" y="260" width="139.84" height="280" as="geometry" />
        </mxCell>
        <mxCell id="O4546vlrkSZURTtSVhJm-2" value="Mirror Maker" style="rounded=0;whiteSpace=wrap;html=1;verticalAlign=top;" vertex="1" parent="1">
          <mxGeometry x="325" y="474" width="140" height="60" as="geometry" />
        </mxCell>
        <mxCell id="O4546vlrkSZURTtSVhJm-3" value="Event Streams Operator" style="rounded=0;whiteSpace=wrap;html=1;verticalAlign=middle;" vertex="1" parent="1">
          <mxGeometry x="155" y="556" width="140" height="30" as="geometry" />
        </mxCell>
        <mxCell id="O4546vlrkSZURTtSVhJm-6" value="Topic&lt;div&gt;&lt;span style=&quot;text-align: left;&quot;&gt;&lt;font style=&quot;font-size: 10px;&quot;&gt;LH.SENSORS&lt;/font&gt;&lt;/span&gt;&lt;/div&gt;" style="rounded=0;whiteSpace=wrap;html=1;verticalAlign=middle;" vertex="1" parent="1">
          <mxGeometry x="170" y="320" width="100.39349999999999" height="29.5275" as="geometry" />
        </mxCell>
        <mxCell id="O4546vlrkSZURTtSVhJm-11" value="Workstation" style="rounded=0;whiteSpace=wrap;html=1;verticalAlign=top;" vertex="1" parent="1">
          <mxGeometry x="129.2125" y="80" width="180" height="90" as="geometry" />
        </mxCell>
        <mxCell id="O4546vlrkSZURTtSVhJm-44" style="edgeStyle=none;shape=connector;rounded=0;orthogonalLoop=1;jettySize=auto;html=1;entryX=0.5;entryY=0;entryDx=0;entryDy=0;strokeColor=default;align=center;verticalAlign=middle;fontFamily=Helvetica;fontSize=11;fontColor=default;labelBackgroundColor=default;endArrow=classic;" edge="1" parent="1" source="O4546vlrkSZURTtSVhJm-13" target="O4546vlrkSZURTtSVhJm-38">
          <mxGeometry relative="1" as="geometry" />
        </mxCell>
        <mxCell id="O4546vlrkSZURTtSVhJm-13" value="Java client" style="rounded=0;whiteSpace=wrap;html=1;" vertex="1" parent="1">
          <mxGeometry x="159.2125" y="116" width="120" height="30" as="geometry" />
        </mxCell>
        <mxCell id="O4546vlrkSZURTtSVhJm-14" value="is signed by" style="edgeStyle=orthogonalEdgeStyle;rounded=0;orthogonalLoop=1;jettySize=auto;html=1;" edge="1" parent="1" source="O4546vlrkSZURTtSVhJm-15" target="O4546vlrkSZURTtSVhJm-16">
          <mxGeometry relative="1" as="geometry" />
        </mxCell>
        <mxCell id="O4546vlrkSZURTtSVhJm-15" value="Certificate&lt;div&gt;Server Certificate&lt;/div&gt;" style="rounded=0;whiteSpace=wrap;html=1;verticalAlign=top;" vertex="1" parent="1">
          <mxGeometry x="905" y="380" width="120" height="60" as="geometry" />
        </mxCell>
        <mxCell id="O4546vlrkSZURTtSVhJm-16" value="Certificate&lt;div&gt;CA Certificate&lt;/div&gt;" style="rounded=0;whiteSpace=wrap;html=1;verticalAlign=top;" vertex="1" parent="1">
          <mxGeometry x="905" y="500" width="120" height="60" as="geometry" />
        </mxCell>
        <mxCell id="O4546vlrkSZURTtSVhJm-17" value="&lt;b&gt;&lt;font style=&quot;font-size: 48px;&quot;&gt;es mm2 scenario&lt;/font&gt;&lt;/b&gt;" style="text;html=1;align=center;verticalAlign=middle;whiteSpace=wrap;rounded=0;" vertex="1" parent="1">
          <mxGeometry x="357" y="10" width="455" height="90" as="geometry" />
        </mxCell>
        <mxCell id="O4546vlrkSZURTtSVhJm-18" value="namespace : esd" style="rounded=0;whiteSpace=wrap;html=1;verticalAlign=top;" vertex="1" parent="1">
          <mxGeometry x="545" y="260" width="290" height="344.21" as="geometry" />
        </mxCell>
        <mxCell id="O4546vlrkSZURTtSVhJm-19" value="Event Streams: esd-es1" style="rounded=0;whiteSpace=wrap;html=1;verticalAlign=top;" vertex="1" parent="1">
          <mxGeometry x="595" y="290" width="200" height="256" as="geometry" />
        </mxCell>
        <mxCell id="O4546vlrkSZURTtSVhJm-20" value="Event Streams Operator" style="rounded=0;whiteSpace=wrap;html=1;verticalAlign=middle;" vertex="1" parent="1">
          <mxGeometry x="595" y="557" width="200" height="30" as="geometry" />
        </mxCell>
        <mxCell id="O4546vlrkSZURTtSVhJm-21" value="Topic&lt;div&gt;LH.Order2&lt;/div&gt;" style="rounded=0;whiteSpace=wrap;html=1;verticalAlign=top;" vertex="1" parent="1">
          <mxGeometry x="617" y="472" width="70" height="64" as="geometry" />
        </mxCell>
        <mxCell id="O4546vlrkSZURTtSVhJm-39" style="edgeStyle=none;shape=connector;rounded=0;orthogonalLoop=1;jettySize=auto;html=1;strokeColor=default;align=center;verticalAlign=middle;fontFamily=Helvetica;fontSize=11;fontColor=default;labelBackgroundColor=default;endArrow=classic;" edge="1" parent="1" source="O4546vlrkSZURTtSVhJm-26" target="O4546vlrkSZURTtSVhJm-33">
          <mxGeometry relative="1" as="geometry" />
        </mxCell>
        <mxCell id="O4546vlrkSZURTtSVhJm-40" style="edgeStyle=none;shape=connector;rounded=0;orthogonalLoop=1;jettySize=auto;html=1;strokeColor=default;align=center;verticalAlign=middle;fontFamily=Helvetica;fontSize=11;fontColor=default;labelBackgroundColor=default;endArrow=classic;" edge="1" parent="1" source="O4546vlrkSZURTtSVhJm-26" target="O4546vlrkSZURTtSVhJm-34">
          <mxGeometry relative="1" as="geometry" />
        </mxCell>
        <mxCell id="O4546vlrkSZURTtSVhJm-41" style="edgeStyle=none;shape=connector;rounded=0;orthogonalLoop=1;jettySize=auto;html=1;strokeColor=default;align=center;verticalAlign=middle;fontFamily=Helvetica;fontSize=11;fontColor=default;labelBackgroundColor=default;endArrow=classic;" edge="1" parent="1" source="O4546vlrkSZURTtSVhJm-26" target="O4546vlrkSZURTtSVhJm-35">
          <mxGeometry relative="1" as="geometry" />
        </mxCell>
        <mxCell id="O4546vlrkSZURTtSVhJm-42" style="edgeStyle=none;shape=connector;rounded=0;orthogonalLoop=1;jettySize=auto;html=1;strokeColor=default;align=center;verticalAlign=middle;fontFamily=Helvetica;fontSize=11;fontColor=default;labelBackgroundColor=default;endArrow=classic;" edge="1" parent="1" source="O4546vlrkSZURTtSVhJm-26" target="O4546vlrkSZURTtSVhJm-36">
          <mxGeometry relative="1" as="geometry" />
        </mxCell>
        <mxCell id="O4546vlrkSZURTtSVhJm-43" style="edgeStyle=none;shape=connector;rounded=0;orthogonalLoop=1;jettySize=auto;html=1;strokeColor=default;align=center;verticalAlign=middle;fontFamily=Helvetica;fontSize=11;fontColor=default;labelBackgroundColor=default;endArrow=classic;" edge="1" parent="1" source="O4546vlrkSZURTtSVhJm-26" target="O4546vlrkSZURTtSVhJm-37">
          <mxGeometry relative="1" as="geometry" />
        </mxCell>
        <mxCell id="O4546vlrkSZURTtSVhJm-26" value="Kafka Connector&lt;div&gt;Datagen&lt;/div&gt;" style="rounded=0;whiteSpace=wrap;html=1;verticalAlign=top;" vertex="1" parent="1">
          <mxGeometry x="325" y="388.76375" width="140" height="40" as="geometry" />
        </mxCell>
        <mxCell id="O4546vlrkSZURTtSVhJm-27" style="rounded=0;orthogonalLoop=1;jettySize=auto;html=1;entryX=0.984;entryY=0.429;entryDx=0;entryDy=0;entryPerimeter=0;" edge="1" parent="1" source="O4546vlrkSZURTtSVhJm-26" target="O4546vlrkSZURTtSVhJm-6">
          <mxGeometry relative="1" as="geometry" />
        </mxCell>
        <mxCell id="O4546vlrkSZURTtSVhJm-30" style="edgeStyle=orthogonalEdgeStyle;rounded=0;orthogonalLoop=1;jettySize=auto;html=1;" edge="1" parent="1" source="O4546vlrkSZURTtSVhJm-2" target="O4546vlrkSZURTtSVhJm-21">
          <mxGeometry relative="1" as="geometry" />
        </mxCell>
        <mxCell id="O4546vlrkSZURTtSVhJm-33" value="Topic&lt;div&gt;&lt;span style=&quot;text-align: left;&quot;&gt;&lt;font style=&quot;font-size: 10px;&quot;&gt;LH.ORDERS&lt;/font&gt;&lt;/span&gt;&lt;br style=&quot;padding: 0px; margin: 0px; text-align: left;&quot;&gt;&lt;/div&gt;" style="rounded=0;whiteSpace=wrap;html=1;verticalAlign=middle;" vertex="1" parent="1">
          <mxGeometry x="170" y="357" width="100.39349999999999" height="29.5275" as="geometry" />
        </mxCell>
        <mxCell id="O4546vlrkSZURTtSVhJm-34" value="Topic&lt;div&gt;&lt;span style=&quot;text-align: left;&quot;&gt;&lt;font style=&quot;font-size: 10px;&quot;&gt;LH.CANCELLATIONS&lt;/font&gt;&lt;/span&gt;&lt;br style=&quot;padding: 0px; margin: 0px; text-align: left;&quot;&gt;&lt;/div&gt;" style="rounded=0;whiteSpace=wrap;html=1;verticalAlign=middle;" vertex="1" parent="1">
          <mxGeometry x="170" y="394" width="100.39349999999999" height="29.5275" as="geometry" />
        </mxCell>
        <mxCell id="O4546vlrkSZURTtSVhJm-35" value="Topic&lt;div&gt;&lt;span style=&quot;text-align: left;&quot;&gt;&lt;font style=&quot;font-size: 10px;&quot;&gt;LH.DOORS&lt;/font&gt;&lt;/span&gt;&lt;/div&gt;" style="rounded=0;whiteSpace=wrap;html=1;verticalAlign=middle;" vertex="1" parent="1">
          <mxGeometry x="170" y="432" width="100.39349999999999" height="29.5275" as="geometry" />
        </mxCell>
        <mxCell id="O4546vlrkSZURTtSVhJm-36" value="Topic&lt;div&gt;&lt;span style=&quot;text-align: left;&quot;&gt;&lt;font style=&quot;font-size: 10px;&quot;&gt;LH.STOCK&lt;/font&gt;&lt;/span&gt;&lt;br style=&quot;padding: 0px; margin: 0px; text-align: left;&quot;&gt;&lt;/div&gt;" style="rounded=0;whiteSpace=wrap;html=1;verticalAlign=middle;" vertex="1" parent="1">
          <mxGeometry x="170" y="469" width="100.39349999999999" height="29.5275" as="geometry" />
        </mxCell>
        <mxCell id="O4546vlrkSZURTtSVhJm-37" value="Topic&lt;div&gt;&lt;span style=&quot;text-align: left;&quot;&gt;&lt;font style=&quot;font-size: 10px;&quot;&gt;LH.CUSTOMERS&lt;/font&gt;&lt;/span&gt;&lt;/div&gt;" style="rounded=0;whiteSpace=wrap;html=1;verticalAlign=middle;" vertex="1" parent="1">
          <mxGeometry x="170" y="506" width="100.39349999999999" height="29.5275" as="geometry" />
        </mxCell>
        <mxCell id="O4546vlrkSZURTtSVhJm-38" value="Topic&lt;div&gt;&lt;span style=&quot;text-align: left;&quot;&gt;&lt;font style=&quot;font-size: 10px;&quot;&gt;MY.TP1&lt;/font&gt;&lt;/span&gt;&lt;/div&gt;" style="rounded=0;whiteSpace=wrap;html=1;verticalAlign=middle;" vertex="1" parent="1">
          <mxGeometry x="170" y="285" width="100.39349999999999" height="29.5275" as="geometry" />
        </mxCell>
      </root>
    </mxGraphModel>
  </diagram>
</mxfile>
